<?xml version="1.0" encoding="UTF-8" standalone="no"?>
<!-- Created with Inkscape (http://www.inkscape.org/) -->

<svg
   width="311.06241mm"
   height="142.74789mm"
   viewBox="0 0 311.06241 142.74789"
   version="1.1"
   id="svg504"
   inkscape:export-filename="icon-transparence-bg.png"
   inkscape:export-xdpi="96"
   inkscape:export-ydpi="96"
   inkscape:version="1.2.1 (9c6d41e4, 2022-07-14)"
   sodipodi:docname="icon-only.svg"
   xmlns:inkscape="http://www.inkscape.org/namespaces/inkscape"
   xmlns:sodipodi="http://sodipodi.sourceforge.net/DTD/sodipodi-0.dtd"
   xmlns="http://www.w3.org/2000/svg"
   xmlns:svg="http://www.w3.org/2000/svg">
  <sodipodi:namedview
     id="namedview506"
     pagecolor="#ffffff"
     bordercolor="#000000"
     borderopacity="0.25"
     inkscape:showpageshadow="2"
     inkscape:pageopacity="0.0"
     inkscape:pagecheckerboard="0"
     inkscape:deskcolor="#d1d1d1"
     inkscape:document-units="mm"
     showgrid="false"
     inkscape:zoom="0.2102413"
     inkscape:cx="-409.05378"
     inkscape:cy="271.11704"
     inkscape:window-width="1309"
     inkscape:window-height="484"
     inkscape:window-x="0"
     inkscape:window-y="25"
     inkscape:window-maximized="0"
     inkscape:current-layer="layer1" />
  <defs
     id="defs501" />
  <g
     inkscape:label="Layer 1"
     inkscape:groupmode="layer"
     id="layer1"
     transform="translate(50.448584,-77.126048)">
    <g
       id="g6818"
       transform="matrix(0.56444398,0,0,0.56444398,-55.703885,-766.5045)">
      <g
         transform="translate(-11.127417,316.12698)"
         id="g6770">
        <path
           sodipodi:nodetypes="csssssscssscsssssscc"
           style="fill:#e9ab34;fill-opacity:1;stroke:#000000;stroke-width:0;stroke-linecap:butt;stroke-linejoin:round;stroke-miterlimit:4;stroke-dasharray:none;stroke-dashoffset:0;stroke-opacity:1"
           d="m 84.40538,527.55786 c -20.184182,-2.74217 -37.002742,-8.96271 -46.576483,-17.22684 -5.927855,-5.11698 -11.388246,-11.46453 -15.723633,-19.50665 -3.224377,-5.9812 -8.442085,-19.60625 -10.2462,-28.51378 -1.232929,-6.0874 -0.861441,-7.68332 -1.307531,-14.38507 -1.2208285,-18.34089 -1.6103573,-16.51315 4.606769,-21.61585 8.854939,-7.26767 25.612353,-17.1632 32.654302,-19.28289 l 1.59099,-0.4789 v 10.34113 c 0,10.85064 0.283315,12.7072 3.64288,23.87172 2.226165,7.39799 5.261773,11.89545 12.076224,17.89173 5.503085,4.84236 20.676892,8.80579 33.677227,8.79656 13.533145,-0.01 18.706165,-1.33968 42.370165,-10.89412 29.3321,-11.84295 46.79703,-21.10726 60.33966,-32.00731 2.57091,-2.06925 4.93625,-3.76227 5.2563,-3.76227 1.13119,0 53.91689,30.05916 53.62466,30.53692 -0.97106,1.58758 -33.13509,23.50149 -44.10992,30.05284 -24.9494,14.8934 -71.64763,35.77728 -95.14806,42.5511 -7.78299,2.24339 -18.0978,4.4086 -20.15203,3.9635 -0.21062,-0.0456 -11.519506,0.35505 -16.57532,-0.33182 z"
           id="path5991"
           inkscape:connector-curvature="0"
           transform="translate(10.61646,903.43042)" />
        <path
           sodipodi:nodetypes="cccccccccccccc"
           style="fill:#e9ab34;fill-opacity:1;stroke:#000000;stroke-width:0;stroke-linecap:butt;stroke-linejoin:round;stroke-miterlimit:4;stroke-dasharray:none;stroke-dashoffset:0;stroke-opacity:1"
           d="m 419.65456,1418.5495 c -54.95217,-7.5278 -100.94948,-41.0141 -148.71155,-66.5794 -41.72364,-22.0661 -81.51096,-52.6744 -130.05817,-57.0235 -26.77935,-1.6846 -54.268036,0.1898 -78.832581,11.9686 -14.515345,5.7027 -28.098143,13.6875 -40.498814,23.0031 6.4076,-36.4564 22.793199,-74.7847 57.424872,-92.5922 33.484823,-19.0653 73.994523,-13.4184 108.837713,-1.5068 47.7166,16.9994 88.00914,48.9721 129.85148,76.6485 44.96355,29.6864 88.22561,64.0209 139.47967,82.2893 15.84793,6.5182 36.45075,4.6805 50.95156,8.1337 -25.6949,11.5487 -46.96833,13.829 -74.74594,15.6822 l -20.19939,-0.2132 z"
           inkscape:connector-curvature="0"
           id="path6761" />
        <path
           sodipodi:nodetypes="csssccssssssscsssssssssssssc"
           style="fill:#e9ab34;fill-opacity:1;stroke:#000000;stroke-width:0;stroke-linecap:butt;stroke-linejoin:round;stroke-miterlimit:4;stroke-dasharray:none;stroke-dashoffset:0;stroke-opacity:1"
           d="m 480.45589,495.36123 c -12.56928,-0.77092 -17.17399,-1.40215 -26.16295,-3.58652 -1.47792,-0.35914 -0.74695,-0.82132 4.45815,-2.81878 11.16692,-4.28531 32.853,-18.6953 41.6131,-27.6511 11.44215,-11.69777 19.50971,-27.15927 23.90152,-45.8074 2.29033,-17.77875 1.33043,-37.41897 -5.61617,-50.67406 -7.31824,-14.1541 -7.4364,-16.57146 -19.23868,-26.60939 -6.53081,-5.5545 -9.50911,-7.13547 -19.69586,-10.45514 -13.36757,-4.35624 -30.4612,-5.20089 -43.55071,-2.15198 -7.45667,1.73687 -18.02586,5.76271 -27.12622,10.33248 -9.17534,4.60741 -37.24644,23.98224 -48.08326,33.18732 -2.139,1.81692 -7.54836,6.13037 -12.02081,9.58543 -9.6915,7.48691 -18.97815,15.64348 -28.70651,25.21328 l -7.13974,7.02338 -22.91229,-16.0267 c -12.60177,-8.81468 -23.48004,-16.56488 -24.17395,-17.22266 -1.19726,-1.13493 0.22796,-2.36671 27.92286,-24.13308 16.05148,-12.61541 33.16553,-26.23979 38.03121,-30.2764 14.56002,-12.07913 29.25172,-21.4032 45.3871,-28.80486 34.21387,-15.69469 50.18977,-19.67069 77.98365,-19.40819 8.54335,0.0807 12.14677,0.45153 18.72372,1.92693 20.5386,4.60738 41.27371,15.73377 54.58944,29.29249 10.33149,10.52003 15.33044,18.74832 22.7615,37.46553 6.29412,15.8535 7.84178,23.54264 9.3832,46.61791 1.39817,20.93069 -8.38906,52.65885 -23.12094,74.95332 -6.08783,9.213 -16.69974,19.70534 -26.38796,26.09063 -8.82335,5.81527 -6.02789,5.45812 -30.81943,3.93756 z"
           id="path6763"
           inkscape:connector-curvature="0"
           transform="translate(10.61646,903.43042)" />
      </g>
    </g>
  </g>
</svg>
